<svg xmlns="http://www.w3.org/2000/svg" width="2400" height="1600" viewBox="0 0 2400 1600" fill="none" role="img">
<defs>
  <linearGradient id="bgGrad" x1="0" y1="0" x2="1" y2="1"><stop offset="0%" stop-color="#060912"/><stop offset="100%" stop-color="#0A1020"/></linearGradient>
  <linearGradient id="heroGrad" x1="0" y1="0" x2="1" y2="0"><stop offset="0%" stop-color="#57D7FF"/><stop offset="55%" stop-color="#7EF7C7"/><stop offset="100%" stop-color="#FFB84D"/></linearGradient>
  <linearGradient id="panelGlow" x1="0" y1="0" x2="1" y2="1"><stop offset="0%" stop-color="#141E3A"/><stop offset="100%" stop-color="#0A1022"/></linearGradient>
  <filter id="softShadow" x="-20%" y="-20%" width="140%" height="140%"><feDropShadow dx="0" dy="12" stdDeviation="15" flood-color="#000" flood-opacity="0.5"/></filter>
  <pattern id="dotGrid" width="40" height="40" patternUnits="userSpaceOnUse"><circle cx="2" cy="2" r="1" fill="#202A42"/></pattern>
</defs>
<rect width="2400" height="1600" fill="url(#bgGrad)"/><rect width="2400" height="1600" fill="url(#dotGrid)"/><rect x="60" y="60" width="2280" height="220" rx="32" fill="#0D152A" filter="url(#softShadow)"/><rect x="90" y="90" width="2220" height="12" rx="6" fill="url(#heroGrad)"/><text x="100.0" y="155.0" fill="#ECF2FF" font-size="72" font-weight="850" font-family="&#x27;IBM Plex Sans&#x27;, sans-serif" text-anchor="start">ForceInferencePy</text><text x="100.0" y="200.0" fill="#9EB1D5" font-size="28" font-weight="400" font-family="&#x27;IBM Plex Sans&#x27;, sans-serif" text-anchor="start">Robust epithelial mechanics from membrane imagery</text><rect x="60" y="310" width="733.3333333333334" height="320" rx="24" fill="url(#panelGlow)" stroke="#26334F" stroke-width="1.5" filter="url(#softShadow)"/><rect x="84" y="334" width="60" height="6" rx="3" fill="#57D7FF"/><text x="84.0" y="365.0" fill="#ECF2FF" font-size="22" font-weight="700" font-family="&#x27;IBM Plex Sans&#x27;, sans-serif" text-anchor="start">1. Input: Raw Membranes</text><g transform="translate(100,390) scale(0.95)"><polygon points="40,10 80,5 110,30 95,70 50,75 20,45" fill="#0A1020" stroke="#23314D" stroke-width="6" filter="blur(2px)" opacity="0.6"/><polygon points="40,10 80,5 110,30 95,70 50,75 20,45" fill="none" stroke="#26334F" stroke-width="1.5" opacity="0.4"/><polygon points="110,30 150,20 180,50 160,90 120,100 95,70" fill="#0A1020" stroke="#23314D" stroke-width="6" filter="blur(2px)" opacity="0.6"/><polygon points="110,30 150,20 180,50 160,90 120,100 95,70" fill="none" stroke="#26334F" stroke-width="1.5" opacity="0.4"/><polygon points="180,50 220,40 250,70 230,110 190,120 160,90" fill="#0A1020" stroke="#23314D" stroke-width="6" filter="blur(2px)" opacity="0.6"/><polygon points="180,50 220,40 250,70 230,110 190,120 160,90" fill="none" stroke="#26334F" stroke-width="1.5" opacity="0.4"/><polygon points="250,70 290,60 320,90 300,130 260,140 230,110" fill="#0A1020" stroke="#23314D" stroke-width="6" filter="blur(2px)" opacity="0.6"/><polygon points="250,70 290,60 320,90 300,130 260,140 230,110" fill="none" stroke="#26334F" stroke-width="1.5" opacity="0.4"/><polygon points="20,45 50,75 40,115 0,125 -20,95 -10,60" fill="#0A1020" stroke="#23314D" stroke-width="6" filter="blur(2px)" opacity="0.6"/><polygon points="20,45 50,75 40,115 0,125 -20,95 -10,60" fill="none" stroke="#26334F" stroke-width="1.5" opacity="0.4"/><polygon points="50,75 95,70 85,110 40,115" fill="#0A1020" stroke="#23314D" stroke-width="6" filter="blur(2px)" opacity="0.6"/><polygon points="50,75 95,70 85,110 40,115" fill="none" stroke="#26334F" stroke-width="1.5" opacity="0.4"/><polygon points="95,70 120,100 110,140 70,150 85,110" fill="#0A1020" stroke="#23314D" stroke-width="6" filter="blur(2px)" opacity="0.6"/><polygon points="95,70 120,100 110,140 70,150 85,110" fill="none" stroke="#26334F" stroke-width="1.5" opacity="0.4"/><polygon points="120,100 160,90 190,120 180,160 140,170 110,140" fill="#0A1020" stroke="#23314D" stroke-width="6" filter="blur(2px)" opacity="0.6"/><polygon points="120,100 160,90 190,120 180,160 140,170 110,140" fill="none" stroke="#26334F" stroke-width="1.5" opacity="0.4"/><polygon points="190,120 230,110 260,140 250,180 210,190 180,160" fill="#0A1020" stroke="#23314D" stroke-width="6" filter="blur(2px)" opacity="0.6"/><polygon points="190,120 230,110 260,140 250,180 210,190 180,160" fill="none" stroke="#26334F" stroke-width="1.5" opacity="0.4"/><polygon points="260,140 300,130 330,160 310,200 270,210 250,180" fill="#0A1020" stroke="#23314D" stroke-width="6" filter="blur(2px)" opacity="0.6"/><polygon points="260,140 300,130 330,160 310,200 270,210 250,180" fill="none" stroke="#26334F" stroke-width="1.5" opacity="0.4"/><polygon points="0,125 40,115 30,155 -10,165 -30,135" fill="#0A1020" stroke="#23314D" stroke-width="6" filter="blur(2px)" opacity="0.6"/><polygon points="0,125 40,115 30,155 -10,165 -30,135" fill="none" stroke="#26334F" stroke-width="1.5" opacity="0.4"/><polygon points="40,115 85,110 70,150 30,155" fill="#0A1020" stroke="#23314D" stroke-width="6" filter="blur(2px)" opacity="0.6"/><polygon points="40,115 85,110 70,150 30,155" fill="none" stroke="#26334F" stroke-width="1.5" opacity="0.4"/><polygon points="70,150 110,140 100,180 60,190 30,155" fill="#0A1020" stroke="#23314D" stroke-width="6" filter="blur(2px)" opacity="0.6"/><polygon points="70,150 110,140 100,180 60,190 30,155" fill="none" stroke="#26334F" stroke-width="1.5" opacity="0.4"/><polygon points="110,140 140,170 130,210 90,220 100,180" fill="#0A1020" stroke="#23314D" stroke-width="6" filter="blur(2px)" opacity="0.6"/><polygon points="110,140 140,170 130,210 90,220 100,180" fill="none" stroke="#26334F" stroke-width="1.5" opacity="0.4"/><polygon points="140,170 180,160 210,190 200,230 160,240 130,210" fill="#0A1020" stroke="#23314D" stroke-width="6" filter="blur(2px)" opacity="0.6"/><polygon points="140,170 180,160 210,190 200,230 160,240 130,210" fill="none" stroke="#26334F" stroke-width="1.5" opacity="0.4"/><polygon points="210,190 250,180 280,210 270,250 230,260 200,230" fill="#0A1020" stroke="#23314D" stroke-width="6" filter="blur(2px)" opacity="0.6"/><polygon points="210,190 250,180 280,210 270,250 230,260 200,230" fill="none" stroke="#26334F" stroke-width="1.5" opacity="0.4"/><polygon points="-10,165 30,155 20,195 -20,205 -40,175" fill="#0A1020" stroke="#23314D" stroke-width="6" filter="blur(2px)" opacity="0.6"/><polygon points="-10,165 30,155 20,195 -20,205 -40,175" fill="none" stroke="#26334F" stroke-width="1.5" opacity="0.4"/><polygon points="30,155 60,190 50,230 10,235 20,195" fill="#0A1020" stroke="#23314D" stroke-width="6" filter="blur(2px)" opacity="0.6"/><polygon points="30,155 60,190 50,230 10,235 20,195" fill="none" stroke="#26334F" stroke-width="1.5" opacity="0.4"/><polygon points="60,190 100,180 90,220 50,230" fill="#0A1020" stroke="#23314D" stroke-width="6" filter="blur(2px)" opacity="0.6"/><polygon points="60,190 100,180 90,220 50,230" fill="none" stroke="#26334F" stroke-width="1.5" opacity="0.4"/><polygon points="100,180 130,210 120,250 80,260 90,220" fill="#0A1020" stroke="#23314D" stroke-width="6" filter="blur(2px)" opacity="0.6"/><polygon points="100,180 130,210 120,250 80,260 90,220" fill="none" stroke="#26334F" stroke-width="1.5" opacity="0.4"/><polygon points="130,210 160,240 150,280 110,290 120,250" fill="#0A1020" stroke="#23314D" stroke-width="6" filter="blur(2px)" opacity="0.6"/><polygon points="130,210 160,240 150,280 110,290 120,250" fill="none" stroke="#26334F" stroke-width="1.5" opacity="0.4"/><polygon points="160,240 200,230 230,260 220,300 180,310 150,280" fill="#0A1020" stroke="#23314D" stroke-width="6" filter="blur(2px)" opacity="0.6"/><polygon points="160,240 200,230 230,260 220,300 180,310 150,280" fill="none" stroke="#26334F" stroke-width="1.5" opacity="0.4"/><polygon points="10,235 50,230 40,270 0,275 -10,245" fill="#0A1020" stroke="#23314D" stroke-width="6" filter="blur(2px)" opacity="0.6"/><polygon points="10,235 50,230 40,270 0,275 -10,245" fill="none" stroke="#26334F" stroke-width="1.5" opacity="0.4"/><polygon points="50,230 90,220 80,260 40,270" fill="#0A1020" stroke="#23314D" stroke-width="6" filter="blur(2px)" opacity="0.6"/><polygon points="50,230 90,220 80,260 40,270" fill="none" stroke="#26334F" stroke-width="1.5" opacity="0.4"/></g><rect x="833.3333333333334" y="310" width="733.3333333333334" height="320" rx="24" fill="url(#panelGlow)" stroke="#26334F" stroke-width="1.5" filter="url(#softShadow)"/><rect x="857.3333333333334" y="334" width="60" height="6" rx="3" fill="#FFB84D"/><text x="857.3" y="365.0" fill="#ECF2FF" font-size="22" font-weight="700" font-family="&#x27;IBM Plex Sans&#x27;, sans-serif" text-anchor="start">2. Segmented Labels</text><g transform="translate(873.3333333333334,390) scale(0.95)"><polygon points="40,10 80,5 110,30 95,70 50,75 20,45" fill="#6CA7FF" stroke="#0B1020" stroke-width="2" opacity="0.3"/><polygon points="110,30 150,20 180,50 160,90 120,100 95,70" fill="#A98BFF" stroke="#0B1020" stroke-width="2" opacity="0.3"/><polygon points="180,50 220,40 250,70 230,110 190,120 160,90" fill="#7EF7C7" stroke="#0B1020" stroke-width="2" opacity="0.3"/><polygon points="250,70 290,60 320,90 300,130 260,140 230,110" fill="#FF7AC8" stroke="#0B1020" stroke-width="2" opacity="0.3"/><polygon points="20,45 50,75 40,115 0,125 -20,95 -10,60" fill="#57D7FF" stroke="#0B1020" stroke-width="2" opacity="0.3"/><polygon points="50,75 95,70 85,110 40,115" fill="#FFB84D" stroke="#0B1020" stroke-width="2" opacity="0.3"/><polygon points="95,70 120,100 110,140 70,150 85,110" fill="#6CA7FF" stroke="#0B1020" stroke-width="2" opacity="0.3"/><polygon points="120,100 160,90 190,120 180,160 140,170 110,140" fill="#A98BFF" stroke="#0B1020" stroke-width="2" opacity="0.3"/><polygon points="190,120 230,110 260,140 250,180 210,190 180,160" fill="#7EF7C7" stroke="#0B1020" stroke-width="2" opacity="0.3"/><polygon points="260,140 300,130 330,160 310,200 270,210 250,180" fill="#FF7AC8" stroke="#0B1020" stroke-width="2" opacity="0.3"/><polygon points="0,125 40,115 30,155 -10,165 -30,135" fill="#57D7FF" stroke="#0B1020" stroke-width="2" opacity="0.3"/><polygon points="40,115 85,110 70,150 30,155" fill="#FFB84D" stroke="#0B1020" stroke-width="2" opacity="0.3"/><polygon points="70,150 110,140 100,180 60,190 30,155" fill="#6CA7FF" stroke="#0B1020" stroke-width="2" opacity="0.3"/><polygon points="110,140 140,170 130,210 90,220 100,180" fill="#A98BFF" stroke="#0B1020" stroke-width="2" opacity="0.3"/><polygon points="140,170 180,160 210,190 200,230 160,240 130,210" fill="#7EF7C7" stroke="#0B1020" stroke-width="2" opacity="0.3"/><polygon points="210,190 250,180 280,210 270,250 230,260 200,230" fill="#FF7AC8" stroke="#0B1020" stroke-width="2" opacity="0.3"/><polygon points="-10,165 30,155 20,195 -20,205 -40,175" fill="#57D7FF" stroke="#0B1020" stroke-width="2" opacity="0.3"/><polygon points="30,155 60,190 50,230 10,235 20,195" fill="#FFB84D" stroke="#0B1020" stroke-width="2" opacity="0.3"/><polygon points="60,190 100,180 90,220 50,230" fill="#6CA7FF" stroke="#0B1020" stroke-width="2" opacity="0.3"/><polygon points="100,180 130,210 120,250 80,260 90,220" fill="#A98BFF" stroke="#0B1020" stroke-width="2" opacity="0.3"/><polygon points="130,210 160,240 150,280 110,290 120,250" fill="#7EF7C7" stroke="#0B1020" stroke-width="2" opacity="0.3"/><polygon points="160,240 200,230 230,260 220,300 180,310 150,280" fill="#FF7AC8" stroke="#0B1020" stroke-width="2" opacity="0.3"/><polygon points="10,235 50,230 40,270 0,275 -10,245" fill="#57D7FF" stroke="#0B1020" stroke-width="2" opacity="0.3"/><polygon points="50,230 90,220 80,260 40,270" fill="#FFB84D" stroke="#0B1020" stroke-width="2" opacity="0.3"/><polygon points="40,10 80,5 110,30 95,70 50,75 20,45" fill="none" stroke="#ECF2FF" stroke-width="1.5" opacity="0.8"/><polygon points="110,30 150,20 180,50 160,90 120,100 95,70" fill="none" stroke="#ECF2FF" stroke-width="1.5" opacity="0.8"/><polygon points="180,50 220,40 250,70 230,110 190,120 160,90" fill="none" stroke="#ECF2FF" stroke-width="1.5" opacity="0.8"/><polygon points="250,70 290,60 320,90 300,130 260,140 230,110" fill="none" stroke="#ECF2FF" stroke-width="1.5" opacity="0.8"/><polygon points="20,45 50,75 40,115 0,125 -20,95 -10,60" fill="none" stroke="#ECF2FF" stroke-width="1.5" opacity="0.8"/><polygon points="50,75 95,70 85,110 40,115" fill="none" stroke="#ECF2FF" stroke-width="1.5" opacity="0.8"/><polygon points="95,70 120,100 110,140 70,150 85,110" fill="none" stroke="#ECF2FF" stroke-width="1.5" opacity="0.8"/><polygon points="120,100 160,90 190,120 180,160 140,170 110,140" fill="none" stroke="#ECF2FF" stroke-width="1.5" opacity="0.8"/><polygon points="190,120 230,110 260,140 250,180 210,190 180,160" fill="none" stroke="#ECF2FF" stroke-width="1.5" opacity="0.8"/><polygon points="260,140 300,130 330,160 310,200 270,210 250,180" fill="none" stroke="#ECF2FF" stroke-width="1.5" opacity="0.8"/><polygon points="0,125 40,115 30,155 -10,165 -30,135" fill="none" stroke="#ECF2FF" stroke-width="1.5" opacity="0.8"/><polygon points="40,115 85,110 70,150 30,155" fill="none" stroke="#ECF2FF" stroke-width="1.5" opacity="0.8"/><polygon points="70,150 110,140 100,180 60,190 30,155" fill="none" stroke="#ECF2FF" stroke-width="1.5" opacity="0.8"/><polygon points="110,140 140,170 130,210 90,220 100,180" fill="none" stroke="#ECF2FF" stroke-width="1.5" opacity="0.8"/><polygon points="140,170 180,160 210,190 200,230 160,240 130,210" fill="none" stroke="#ECF2FF" stroke-width="1.5" opacity="0.8"/><polygon points="210,190 250,180 280,210 270,250 230,260 200,230" fill="none" stroke="#ECF2FF" stroke-width="1.5" opacity="0.8"/><polygon points="-10,165 30,155 20,195 -20,205 -40,175" fill="none" stroke="#ECF2FF" stroke-width="1.5" opacity="0.8"/><polygon points="30,155 60,190 50,230 10,235 20,195" fill="none" stroke="#ECF2FF" stroke-width="1.5" opacity="0.8"/><polygon points="60,190 100,180 90,220 50,230" fill="none" stroke="#ECF2FF" stroke-width="1.5" opacity="0.8"/><polygon points="100,180 130,210 120,250 80,260 90,220" fill="none" stroke="#ECF2FF" stroke-width="1.5" opacity="0.8"/><polygon points="130,210 160,240 150,280 110,290 120,250" fill="none" stroke="#ECF2FF" stroke-width="1.5" opacity="0.8"/><polygon points="160,240 200,230 230,260 220,300 180,310 150,280" fill="none" stroke="#ECF2FF" stroke-width="1.5" opacity="0.8"/><polygon points="10,235 50,230 40,270 0,275 -10,245" fill="none" stroke="#ECF2FF" stroke-width="1.5" opacity="0.8"/><polygon points="50,230 90,220 80,260 40,270" fill="none" stroke="#ECF2FF" stroke-width="1.5" opacity="0.8"/></g><rect x="1606.6666666666667" y="310" width="733.3333333333334" height="320" rx="24" fill="url(#panelGlow)" stroke="#26334F" stroke-width="1.5" filter="url(#softShadow)"/><rect x="1630.6666666666667" y="334" width="60" height="6" rx="3" fill="#FF6B6B"/><text x="1630.7" y="365.0" fill="#ECF2FF" font-size="22" font-weight="700" font-family="&#x27;IBM Plex Sans&#x27;, sans-serif" text-anchor="start">3. Inferred Tensions</text><g transform="translate(1646.6666666666667,390) scale(0.95)"><polygon points="40,10 80,5 110,30 95,70 50,75 20,45" fill="#0B1020" stroke="#57D7FF" stroke-width="3" stroke-linejoin="round" opacity="0.9"/><polygon points="110,30 150,20 180,50 160,90 120,100 95,70" fill="#0B1020" stroke="#FFB84D" stroke-width="5" stroke-linejoin="round" opacity="0.9"/><polygon points="180,50 220,40 250,70 230,110 190,120 160,90" fill="#0B1020" stroke="#FF6B6B" stroke-width="7" stroke-linejoin="round" opacity="0.9"/><polygon points="250,70 290,60 320,90 300,130 260,140 230,110" fill="#0B1020" stroke="#FF7AC8" stroke-width="9" stroke-linejoin="round" opacity="0.9"/><polygon points="20,45 50,75 40,115 0,125 -20,95 -10,60" fill="#0B1020" stroke="#57D7FF" stroke-width="3" stroke-linejoin="round" opacity="0.9"/><polygon points="50,75 95,70 85,110 40,115" fill="#0B1020" stroke="#FFB84D" stroke-width="5" stroke-linejoin="round" opacity="0.9"/><polygon points="95,70 120,100 110,140 70,150 85,110" fill="#0B1020" stroke="#57D7FF" stroke-width="3" stroke-linejoin="round" opacity="0.9"/><polygon points="120,100 160,90 190,120 180,160 140,170 110,140" fill="#0B1020" stroke="#FFB84D" stroke-width="5" stroke-linejoin="round" opacity="0.9"/><polygon points="190,120 230,110 260,140 250,180 210,190 180,160" fill="#0B1020" stroke="#FF6B6B" stroke-width="7" stroke-linejoin="round" opacity="0.9"/><polygon points="260,140 300,130 330,160 310,200 270,210 250,180" fill="#0B1020" stroke="#FF7AC8" stroke-width="9" stroke-linejoin="round" opacity="0.9"/><polygon points="0,125 40,115 30,155 -10,165 -30,135" fill="#0B1020" stroke="#57D7FF" stroke-width="3" stroke-linejoin="round" opacity="0.9"/><polygon points="40,115 85,110 70,150 30,155" fill="#0B1020" stroke="#FFB84D" stroke-width="5" stroke-linejoin="round" opacity="0.9"/><polygon points="70,150 110,140 100,180 60,190 30,155" fill="#0B1020" stroke="#57D7FF" stroke-width="3" stroke-linejoin="round" opacity="0.9"/><polygon points="110,140 140,170 130,210 90,220 100,180" fill="#0B1020" stroke="#FFB84D" stroke-width="5" stroke-linejoin="round" opacity="0.9"/><polygon points="140,170 180,160 210,190 200,230 160,240 130,210" fill="#0B1020" stroke="#FF6B6B" stroke-width="7" stroke-linejoin="round" opacity="0.9"/><polygon points="210,190 250,180 280,210 270,250 230,260 200,230" fill="#0B1020" stroke="#FF7AC8" stroke-width="9" stroke-linejoin="round" opacity="0.9"/><polygon points="-10,165 30,155 20,195 -20,205 -40,175" fill="#0B1020" stroke="#57D7FF" stroke-width="3" stroke-linejoin="round" opacity="0.9"/><polygon points="30,155 60,190 50,230 10,235 20,195" fill="#0B1020" stroke="#FFB84D" stroke-width="5" stroke-linejoin="round" opacity="0.9"/><polygon points="60,190 100,180 90,220 50,230" fill="#0B1020" stroke="#57D7FF" stroke-width="3" stroke-linejoin="round" opacity="0.9"/><polygon points="100,180 130,210 120,250 80,260 90,220" fill="#0B1020" stroke="#FFB84D" stroke-width="5" stroke-linejoin="round" opacity="0.9"/><polygon points="130,210 160,240 150,280 110,290 120,250" fill="#0B1020" stroke="#FF6B6B" stroke-width="7" stroke-linejoin="round" opacity="0.9"/><polygon points="160,240 200,230 230,260 220,300 180,310 150,280" fill="#0B1020" stroke="#FF7AC8" stroke-width="9" stroke-linejoin="round" opacity="0.9"/><polygon points="10,235 50,230 40,270 0,275 -10,245" fill="#0B1020" stroke="#57D7FF" stroke-width="3" stroke-linejoin="round" opacity="0.9"/><polygon points="50,230 90,220 80,260 40,270" fill="#0B1020" stroke="#FFB84D" stroke-width="5" stroke-linejoin="round" opacity="0.9"/></g><path d="M 803.3333333333334 470.0 L 823.3333333333334 470.0 M 815.3333333333334 462.0 L 823.3333333333334 470.0 L 815.3333333333334 478.0" stroke="#9EB1D5" stroke-width="3" stroke-linecap="round"/><path d="M 1576.6666666666667 470.0 L 1596.6666666666667 470.0 M 1588.6666666666667 462.0 L 1596.6666666666667 470.0 L 1588.6666666666667 478.0" stroke="#9EB1D5" stroke-width="3" stroke-linecap="round"/><rect x="60" y="660" width="740.0" height="420" rx="24" fill="url(#panelGlow)" stroke="#26334F" stroke-width="1.5" filter="url(#softShadow)"/><rect x="84" y="684" width="60" height="6" rx="3" fill="#FFB84D"/><text x="84.0" y="715.0" fill="#ECF2FF" font-size="22" font-weight="700" font-family="&#x27;IBM Plex Sans&#x27;, sans-serif" text-anchor="start">Core Capabilities</text><circle cx="92" cy="754" r="3.5" fill="#FFB84D"/><text x="105.0" y="760.0" fill="#ECF2FF" font-size="16" font-weight="450" font-family="&#x27;IBM Plex Sans&#x27;, sans-serif"><tspan x="105.0" dy="0.0" text-anchor="start">Hybrid segmentation: Neural (Cellpose) +</tspan><tspan x="105.0" dy="21.1" text-anchor="start">Grayscale fallback.</tspan></text><circle cx="92" cy="807.2" r="3.5" fill="#FFB84D"/><text x="105.0" y="813.2" fill="#ECF2FF" font-size="16" font-weight="450" font-family="&#x27;IBM Plex Sans&#x27;, sans-serif"><tspan x="105.0" dy="0.0" text-anchor="start">Label-driven topology: Preserves junctions</tspan><tspan x="105.0" dy="21.1" text-anchor="start">lost in skeletonization.</tspan></text><circle cx="92" cy="860.4000000000001" r="3.5" fill="#FFB84D"/><text x="105.0" y="866.4" fill="#ECF2FF" font-size="16" font-weight="450" font-family="&#x27;IBM Plex Sans&#x27;, sans-serif"><tspan x="105.0" dy="0.0" text-anchor="start">Multi-modal solvers: Bayesian inference and</tspan><tspan x="105.0" dy="21.1" text-anchor="start">Young-Laplace balance.</tspan></text><circle cx="92" cy="913.6000000000001" r="3.5" fill="#FFB84D"/><text x="105.0" y="919.6" fill="#ECF2FF" font-size="16" font-weight="450" font-family="&#x27;IBM Plex Sans&#x27;, sans-serif"><tspan x="105.0" dy="0.0" text-anchor="start">Detailed Stress Analysis: Per-cell Batchelor</tspan><tspan x="105.0" dy="21.1" text-anchor="start">stress tensors.</tspan></text><circle cx="92" cy="966.8000000000002" r="3.5" fill="#FFB84D"/><text x="105.0" y="972.8" fill="#ECF2FF" font-size="16" font-weight="450" font-family="&#x27;IBM Plex Sans&#x27;, sans-serif"><tspan x="105.0" dy="0.0" text-anchor="start">2.5D Vertex Mapping: Support for height-aware</tspan><tspan x="105.0" dy="21.1" text-anchor="start">tissue graphs.</tspan></text><rect x="60" y="1110" width="740.0" height="400" rx="24" fill="url(#panelGlow)" stroke="#26334F" stroke-width="1.5" filter="url(#softShadow)"/><rect x="84" y="1134" width="60" height="6" rx="3" fill="#57D7FF"/><text x="84.0" y="1165.0" fill="#ECF2FF" font-size="22" font-weight="700" font-family="&#x27;IBM Plex Sans&#x27;, sans-serif" text-anchor="start">Repository Metrics</text><rect x="80.0" y="1180" width="340.0" height="120" rx="16" fill="#0E1527" stroke="#26334F"/><text x="100.0" y="1235.0" fill="#57D7FF" font-size="38" font-weight="800" font-family="&#x27;IBM Plex Sans&#x27;, sans-serif" text-anchor="start">12+</text><text x="100.0" y="1265.0" fill="#9EB1D5" font-size="16" font-weight="400" font-family="&#x27;IBM Plex Sans&#x27;, sans-serif" text-anchor="start">Modules</text><rect x="440.0" y="1180" width="340.0" height="120" rx="16" fill="#0E1527" stroke="#26334F"/><text x="460.0" y="1235.0" fill="#7EF7C7" font-size="38" font-weight="800" font-family="&#x27;IBM Plex Sans&#x27;, sans-serif" text-anchor="start">8</text><text x="460.0" y="1265.0" fill="#9EB1D5" font-size="16" font-weight="400" font-family="&#x27;IBM Plex Sans&#x27;, sans-serif" text-anchor="start">Examples</text><rect x="80.0" y="1330" width="340.0" height="120" rx="16" fill="#0E1527" stroke="#26334F"/><text x="100.0" y="1385.0" fill="#FF7AC8" font-size="38" font-weight="800" font-family="&#x27;IBM Plex Sans&#x27;, sans-serif" text-anchor="start">30+</text><text x="100.0" y="1415.0" fill="#9EB1D5" font-size="16" font-weight="400" font-family="&#x27;IBM Plex Sans&#x27;, sans-serif" text-anchor="start">Test cases</text><rect x="440.0" y="1330" width="340.0" height="120" rx="16" fill="#0E1527" stroke="#26334F"/><text x="460.0" y="1385.0" fill="#FFB84D" font-size="38" font-weight="800" font-family="&#x27;IBM Plex Sans&#x27;, sans-serif" text-anchor="start">100%</text><text x="460.0" y="1415.0" fill="#9EB1D5" font-size="16" font-weight="400" font-family="&#x27;IBM Plex Sans&#x27;, sans-serif" text-anchor="start">Python</text><rect x="830.0" y="660" width="740.0" height="850" rx="24" fill="url(#panelGlow)" stroke="#26334F" stroke-width="1.5" filter="url(#softShadow)"/><rect x="854.0" y="684" width="60" height="6" rx="3" fill="#57D7FF"/><text x="854.0" y="715.0" fill="#ECF2FF" font-size="22" font-weight="700" font-family="&#x27;IBM Plex Sans&#x27;, sans-serif" text-anchor="start">End-to-end Pipeline</text><rect x="848.0" y="745" width="704.0" height="135" rx="22" fill="#0E1527" stroke="#26334F" stroke-width="1"/><circle cx="878.0" cy="775" r="15" fill="#57D7FF" opacity="0.2"/><text x="878.0" y="781.0" fill="#57D7FF" font-size="16" font-weight="800" font-family="&#x27;IBM Plex Sans&#x27;, sans-serif" text-anchor="middle">1</text><text x="903.0" y="782.0" fill="#ECF2FF" font-size="20" font-weight="700" font-family="&#x27;IBM Plex Sans&#x27;, sans-serif" text-anchor="start">Segmentation</text><text x="903.0" y="813.0" fill="#9EB1D5" font-size="14" font-weight="400" font-family="&#x27;IBM Plex Sans&#x27;, sans-serif"><tspan x="903.0" dy="0.0" text-anchor="start">Cellpose-first path with grayscale</tspan><tspan x="903.0" dy="18.5" text-anchor="start">fallback.</tspan></text><line x1="1200.0" y1="880" x2="1200.0" y2="900" stroke="#26334F" stroke-width="2"/><rect x="848.0" y="900" width="704.0" height="135" rx="22" fill="#0E1527" stroke="#26334F" stroke-width="1"/><circle cx="878.0" cy="930" r="15" fill="#FFB84D" opacity="0.2"/><text x="878.0" y="936.0" fill="#FFB84D" font-size="16" font-weight="800" font-family="&#x27;IBM Plex Sans&#x27;, sans-serif" text-anchor="middle">2</text><text x="903.0" y="937.0" fill="#ECF2FF" font-size="20" font-weight="700" font-family="&#x27;IBM Plex Sans&#x27;, sans-serif" text-anchor="start">Topology</text><text x="903.0" y="968.0" fill="#9EB1D5" font-size="14" font-weight="400" font-family="&#x27;IBM Plex Sans&#x27;, sans-serif"><tspan x="903.0" dy="0.0" text-anchor="start">Label-driven extraction avoids</tspan><tspan x="903.0" dy="18.5" text-anchor="start">skeleton artifacts.</tspan></text><line x1="1200.0" y1="1035" x2="1200.0" y2="1055" stroke="#26334F" stroke-width="2"/><rect x="848.0" y="1055" width="704.0" height="135" rx="22" fill="#0E1527" stroke="#26334F" stroke-width="1"/><circle cx="878.0" cy="1085" r="15" fill="#FF7AC8" opacity="0.2"/><text x="878.0" y="1091.0" fill="#FF7AC8" font-size="16" font-weight="800" font-family="&#x27;IBM Plex Sans&#x27;, sans-serif" text-anchor="middle">3</text><text x="903.0" y="1092.0" fill="#ECF2FF" font-size="20" font-weight="700" font-family="&#x27;IBM Plex Sans&#x27;, sans-serif" text-anchor="start">Splitting</text><text x="903.0" y="1123.0" fill="#9EB1D5" font-size="14" font-weight="400" font-family="&#x27;IBM Plex Sans&#x27;, sans-serif"><tspan x="903.0" dy="0.0" text-anchor="start">High-degree junction replacement for</tspan><tspan x="903.0" dy="18.5" text-anchor="start">stability.</tspan></text><line x1="1200.0" y1="1190" x2="1200.0" y2="1210" stroke="#26334F" stroke-width="2"/><rect x="848.0" y="1210" width="704.0" height="135" rx="22" fill="#0E1527" stroke="#26334F" stroke-width="1"/><circle cx="878.0" cy="1240" r="15" fill="#7EF7C7" opacity="0.2"/><text x="878.0" y="1246.0" fill="#7EF7C7" font-size="16" font-weight="800" font-family="&#x27;IBM Plex Sans&#x27;, sans-serif" text-anchor="middle">4</text><text x="903.0" y="1247.0" fill="#ECF2FF" font-size="20" font-weight="700" font-family="&#x27;IBM Plex Sans&#x27;, sans-serif" text-anchor="start">Geometry</text><text x="903.0" y="1278.0" fill="#9EB1D5" font-size="14" font-weight="400" font-family="&#x27;IBM Plex Sans&#x27;, sans-serif"><tspan x="903.0" dy="0.0" text-anchor="start">Circle fitting and analytical</tspan><tspan x="903.0" dy="18.5" text-anchor="start">tangent calculation.</tspan></text><line x1="1200.0" y1="1345" x2="1200.0" y2="1365" stroke="#26334F" stroke-width="2"/><rect x="848.0" y="1365" width="704.0" height="135" rx="22" fill="#0E1527" stroke="#26334F" stroke-width="1"/><circle cx="878.0" cy="1395" r="15" fill="#FF6B6B" opacity="0.2"/><text x="878.0" y="1401.0" fill="#FF6B6B" font-size="16" font-weight="800" font-family="&#x27;IBM Plex Sans&#x27;, sans-serif" text-anchor="middle">5</text><text x="903.0" y="1402.0" fill="#ECF2FF" font-size="20" font-weight="700" font-family="&#x27;IBM Plex Sans&#x27;, sans-serif" text-anchor="start">Solvers</text><text x="903.0" y="1433.0" fill="#9EB1D5" font-size="14" font-weight="400" font-family="&#x27;IBM Plex Sans&#x27;, sans-serif"><tspan x="903.0" dy="0.0" text-anchor="start">Bayesian and Young-Laplace inverse</tspan><tspan x="903.0" dy="18.5" text-anchor="start">mechanics.</tspan></text><line x1="1200.0" y1="1500" x2="1200.0" y2="1520" stroke="#26334F" stroke-width="2"/><rect x="848.0" y="1520" width="704.0" height="135" rx="22" fill="#0E1527" stroke="#26334F" stroke-width="1"/><circle cx="878.0" cy="1550" r="15" fill="#A98BFF" opacity="0.2"/><text x="878.0" y="1556.0" fill="#A98BFF" font-size="16" font-weight="800" font-family="&#x27;IBM Plex Sans&#x27;, sans-serif" text-anchor="middle">6</text><text x="903.0" y="1557.0" fill="#ECF2FF" font-size="20" font-weight="700" font-family="&#x27;IBM Plex Sans&#x27;, sans-serif" text-anchor="start">Post-Process</text><text x="903.0" y="1588.0" fill="#9EB1D5" font-size="14" font-weight="400" font-family="&#x27;IBM Plex Sans&#x27;, sans-serif"><tspan x="903.0" dy="0.0" text-anchor="start">Per-cell stress tensors and 2.5D</tspan><tspan x="903.0" dy="18.5" text-anchor="start">vertex maps.</tspan></text><rect x="1600.0" y="660" width="740.0" height="850" rx="24" fill="url(#panelGlow)" stroke="#26334F" stroke-width="1.5" filter="url(#softShadow)"/><rect x="1624.0" y="684" width="60" height="6" rx="3" fill="#FF6B6B"/><text x="1624.0" y="715.0" fill="#ECF2FF" font-size="22" font-weight="700" font-family="&#x27;IBM Plex Sans&#x27;, sans-serif" text-anchor="start">Mathematical Implementation</text><rect x="1615.0" y="745" width="710.0" height="160" rx="20" fill="#0E1527" stroke="#26334F" stroke-width="1.2"/><text x="1633.0" y="785.0" fill="#57D7FF" font-size="18" font-weight="700" font-family="&#x27;IBM Plex Sans&#x27;, sans-serif" text-anchor="start">Force Balance</text><text x="1633.0" y="825.0" fill="#ECF2FF" font-size="24" font-weight="700" font-family="&#x27;IBM Plex Mono&#x27;, monospace" text-anchor="start">Σ T_e·u_e + Σ P_c·n_vc = 0</text><text x="1633.0" y="860.0" fill="#9EB1D5" font-size="15" font-weight="400" font-family="&#x27;IBM Plex Sans&#x27;, sans-serif"><tspan x="1633.0" dy="0.0" text-anchor="start">Equilibrium at junctions couples edges and</tspan><tspan x="1633.0" dy="19.8" text-anchor="start">cells.</tspan></text><rect x="1615.0" y="925" width="710.0" height="160" rx="20" fill="#0E1527" stroke="#26334F" stroke-width="1.2"/><text x="1633.0" y="965.0" fill="#FFB84D" font-size="18" font-weight="700" font-family="&#x27;IBM Plex Sans&#x27;, sans-serif" text-anchor="start">Bayesian Inverse</text><text x="1633.0" y="1005.0" fill="#ECF2FF" font-size="24" font-weight="700" font-family="&#x27;IBM Plex Mono&#x27;, monospace" text-anchor="start">x* = argmin ||Ax||² + μ||Bx-g||²</text><text x="1633.0" y="1040.0" fill="#9EB1D5" font-size="15" font-weight="400" font-family="&#x27;IBM Plex Sans&#x27;, sans-serif"><tspan x="1633.0" dy="0.0" text-anchor="start">Regularized solver for indeterminate systems.</tspan></text><rect x="1615.0" y="1105" width="710.0" height="160" rx="20" fill="#0E1527" stroke="#26334F" stroke-width="1.2"/><text x="1633.0" y="1145.0" fill="#FF7AC8" font-size="18" font-weight="700" font-family="&#x27;IBM Plex Sans&#x27;, sans-serif" text-anchor="start">Young-Laplace Law</text><text x="1633.0" y="1185.0" fill="#ECF2FF" font-size="24" font-weight="700" font-family="&#x27;IBM Plex Mono&#x27;, monospace" text-anchor="start">ΔP = T · κ</text><text x="1633.0" y="1220.0" fill="#9EB1D5" font-size="15" font-weight="400" font-family="&#x27;IBM Plex Sans&#x27;, sans-serif"><tspan x="1633.0" dy="0.0" text-anchor="start">Interface curvature fits inferred tension</tspan><tspan x="1633.0" dy="19.8" text-anchor="start">field.</tspan></text><rect x="1615.0" y="1285" width="710.0" height="160" rx="20" fill="#0E1527" stroke="#26334F" stroke-width="1.2"/><text x="1633.0" y="1325.0" fill="#7EF7C7" font-size="18" font-weight="700" font-family="&#x27;IBM Plex Sans&#x27;, sans-serif" text-anchor="start">Batchelor Stress</text><text x="1633.0" y="1365.0" fill="#ECF2FF" font-size="24" font-weight="700" font-family="&#x27;IBM Plex Mono&#x27;, monospace" text-anchor="start">σ = -P·I + (1/A)Σ T·L (u⊗u)</text><text x="1633.0" y="1400.0" fill="#9EB1D5" font-size="15" font-weight="400" font-family="&#x27;IBM Plex Sans&#x27;, sans-serif"><tspan x="1633.0" dy="0.0" text-anchor="start">Summarizes cellular stress from edge forces.</tspan></text><rect x="60" y="1480" width="2280" height="80" rx="20" fill="#0D152A" stroke="#26334F"/><text x="90.0" y="1528.0" fill="#ECF2FF" font-size="20" font-weight="700" font-family="&#x27;IBM Plex Sans&#x27;, sans-serif" text-anchor="start">Visual Case Study: 1024x1024 test image processed in &lt; 2s</text><text x="2310.0" y="1528.0" fill="#57D7FF" font-size="20" font-weight="700" font-family="&#x27;IBM Plex Sans&#x27;, sans-serif" text-anchor="end">GitHub: github.com/weiyuankong/ForceInferencePy</text></svg>