<svg xmlns="http://www.w3.org/2000/svg" width="1600" height="2400" viewBox="0 0 1600 2400" fill="none" role="img">
<defs>
  <linearGradient id="bgGrad" x1="0" y1="0" x2="1" y2="1"><stop offset="0%" stop-color="#060912"/><stop offset="100%" stop-color="#0A1020"/></linearGradient>
  <linearGradient id="heroGrad" x1="0" y1="0" x2="1" y2="0"><stop offset="0%" stop-color="#57D7FF"/><stop offset="55%" stop-color="#7EF7C7"/><stop offset="100%" stop-color="#FFB84D"/></linearGradient>
  <linearGradient id="panelGlow" x1="0" y1="0" x2="1" y2="1"><stop offset="0%" stop-color="#141E3A"/><stop offset="100%" stop-color="#0A1022"/></linearGradient>
  <filter id="softShadow" x="-20%" y="-20%" width="140%" height="140%"><feDropShadow dx="0" dy="12" stdDeviation="15" flood-color="#000" flood-opacity="0.5"/></filter>
  <pattern id="dotGrid" width="40" height="40" patternUnits="userSpaceOnUse"><circle cx="2" cy="2" r="1" fill="#202A42"/></pattern>
</defs>
<rect width="1600" height="2400" fill="url(#bgGrad)"/><rect width="1600" height="2400" fill="url(#dotGrid)"/><rect x="58" y="58" width="1484" height="240" rx="36" fill="#0D152A" filter="url(#softShadow)"/><rect x="88" y="88" width="1424" height="14" rx="7" fill="url(#heroGrad)"/><text x="98.0" y="163.0" fill="#ECF2FF" font-size="76" font-weight="850" font-family="&#x27;IBM Plex Sans&#x27;, sans-serif" text-anchor="start">ForceInferencePy</text><text x="98.0" y="213.0" fill="#9EB1D5" font-size="30" font-weight="400" font-family="&#x27;IBM Plex Sans&#x27;, sans-serif" text-anchor="start">Epithelial mechanics from membrane imagery</text><rect x="58.0" y="338" width="468.0" height="320" rx="24" fill="url(#panelGlow)" stroke="#26334F" stroke-width="1.5" filter="url(#softShadow)"/><rect x="82.0" y="362" width="60" height="6" rx="3" fill="#57D7FF"/><text x="82.0" y="393.0" fill="#ECF2FF" font-size="22" font-weight="700" font-family="&#x27;IBM Plex Sans&#x27;, sans-serif" text-anchor="start">Raw Membranes</text><g transform="translate(98.0,418) scale(0.95)"><polygon points="40,10 80,5 110,30 95,70 50,75 20,45" fill="#0A1020" stroke="#23314D" stroke-width="6" filter="blur(2px)" opacity="0.6"/><polygon points="110,30 150,20 180,50 160,90 120,100 95,70" fill="#0A1020" stroke="#23314D" stroke-width="6" filter="blur(2px)" opacity="0.6"/><polygon points="180,50 220,40 250,70 230,110 190,120 160,90" fill="#0A1020" stroke="#23314D" stroke-width="6" filter="blur(2px)" opacity="0.6"/><polygon points="250,70 290,60 320,90 300,130 260,140 230,110" fill="#0A1020" stroke="#23314D" stroke-width="6" filter="blur(2px)" opacity="0.6"/><polygon points="20,45 50,75 40,115 0,125 -20,95 -10,60" fill="#0A1020" stroke="#23314D" stroke-width="6" filter="blur(2px)" opacity="0.6"/><polygon points="50,75 95,70 85,110 40,115" fill="#0A1020" stroke="#23314D" stroke-width="6" filter="blur(2px)" opacity="0.6"/><polygon points="95,70 120,100 110,140 70,150 85,110" fill="#0A1020" stroke="#23314D" stroke-width="6" filter="blur(2px)" opacity="0.6"/><polygon points="120,100 160,90 190,120 180,160 140,170 110,140" fill="#0A1020" stroke="#23314D" stroke-width="6" filter="blur(2px)" opacity="0.6"/><polygon points="190,120 230,110 260,140 250,180 210,190 180,160" fill="#0A1020" stroke="#23314D" stroke-width="6" filter="blur(2px)" opacity="0.6"/><polygon points="260,140 300,130 330,160 310,200 270,210 250,180" fill="#0A1020" stroke="#23314D" stroke-width="6" filter="blur(2px)" opacity="0.6"/><polygon points="0,125 40,115 30,155 -10,165 -30,135" fill="#0A1020" stroke="#23314D" stroke-width="6" filter="blur(2px)" opacity="0.6"/><polygon points="40,115 85,110 70,150 30,155" fill="#0A1020" stroke="#23314D" stroke-width="6" filter="blur(2px)" opacity="0.6"/><polygon points="70,150 110,140 100,180 60,190 30,155" fill="#0A1020" stroke="#23314D" stroke-width="6" filter="blur(2px)" opacity="0.6"/><polygon points="110,140 140,170 130,210 90,220 100,180" fill="#0A1020" stroke="#23314D" stroke-width="6" filter="blur(2px)" opacity="0.6"/><polygon points="140,170 180,160 210,190 200,230 160,240 130,210" fill="#0A1020" stroke="#23314D" stroke-width="6" filter="blur(2px)" opacity="0.6"/><polygon points="210,190 250,180 280,210 270,250 230,260 200,230" fill="#0A1020" stroke="#23314D" stroke-width="6" filter="blur(2px)" opacity="0.6"/><polygon points="-10,165 30,155 20,195 -20,205 -40,175" fill="#0A1020" stroke="#23314D" stroke-width="6" filter="blur(2px)" opacity="0.6"/><polygon points="30,155 60,190 50,230 10,235 20,195" fill="#0A1020" stroke="#23314D" stroke-width="6" filter="blur(2px)" opacity="0.6"/><polygon points="60,190 100,180 90,220 50,230" fill="#0A1020" stroke="#23314D" stroke-width="6" filter="blur(2px)" opacity="0.6"/><polygon points="100,180 130,210 120,250 80,260 90,220" fill="#0A1020" stroke="#23314D" stroke-width="6" filter="blur(2px)" opacity="0.6"/><polygon points="130,210 160,240 150,280 110,290 120,250" fill="#0A1020" stroke="#23314D" stroke-width="6" filter="blur(2px)" opacity="0.6"/><polygon points="160,240 200,230 230,260 220,300 180,310 150,280" fill="#0A1020" stroke="#23314D" stroke-width="6" filter="blur(2px)" opacity="0.6"/><polygon points="10,235 50,230 40,270 0,275 -10,245" fill="#0A1020" stroke="#23314D" stroke-width="6" filter="blur(2px)" opacity="0.6"/><polygon points="50,230 90,220 80,260 40,270" fill="#0A1020" stroke="#23314D" stroke-width="6" filter="blur(2px)" opacity="0.6"/></g><rect x="566.0" y="338" width="468.0" height="320" rx="24" fill="url(#panelGlow)" stroke="#26334F" stroke-width="1.5" filter="url(#softShadow)"/><rect x="590.0" y="362" width="60" height="6" rx="3" fill="#FFB84D"/><text x="590.0" y="393.0" fill="#ECF2FF" font-size="22" font-weight="700" font-family="&#x27;IBM Plex Sans&#x27;, sans-serif" text-anchor="start">Segmented Labels</text><g transform="translate(606.0,418) scale(0.95)"><polygon points="40,10 80,5 110,30 95,70 50,75 20,45" fill="#6CA7FF" stroke="#0B1020" stroke-width="1.5" opacity="0.4"/><polygon points="110,30 150,20 180,50 160,90 120,100 95,70" fill="#A98BFF" stroke="#0B1020" stroke-width="1.5" opacity="0.4"/><polygon points="180,50 220,40 250,70 230,110 190,120 160,90" fill="#7EF7C7" stroke="#0B1020" stroke-width="1.5" opacity="0.4"/><polygon points="250,70 290,60 320,90 300,130 260,140 230,110" fill="#FF7AC8" stroke="#0B1020" stroke-width="1.5" opacity="0.4"/><polygon points="20,45 50,75 40,115 0,125 -20,95 -10,60" fill="#57D7FF" stroke="#0B1020" stroke-width="1.5" opacity="0.4"/><polygon points="50,75 95,70 85,110 40,115" fill="#FFB84D" stroke="#0B1020" stroke-width="1.5" opacity="0.4"/><polygon points="95,70 120,100 110,140 70,150 85,110" fill="#6CA7FF" stroke="#0B1020" stroke-width="1.5" opacity="0.4"/><polygon points="120,100 160,90 190,120 180,160 140,170 110,140" fill="#A98BFF" stroke="#0B1020" stroke-width="1.5" opacity="0.4"/><polygon points="190,120 230,110 260,140 250,180 210,190 180,160" fill="#7EF7C7" stroke="#0B1020" stroke-width="1.5" opacity="0.4"/><polygon points="260,140 300,130 330,160 310,200 270,210 250,180" fill="#FF7AC8" stroke="#0B1020" stroke-width="1.5" opacity="0.4"/><polygon points="0,125 40,115 30,155 -10,165 -30,135" fill="#57D7FF" stroke="#0B1020" stroke-width="1.5" opacity="0.4"/><polygon points="40,115 85,110 70,150 30,155" fill="#FFB84D" stroke="#0B1020" stroke-width="1.5" opacity="0.4"/><polygon points="70,150 110,140 100,180 60,190 30,155" fill="#6CA7FF" stroke="#0B1020" stroke-width="1.5" opacity="0.4"/><polygon points="110,140 140,170 130,210 90,220 100,180" fill="#A98BFF" stroke="#0B1020" stroke-width="1.5" opacity="0.4"/><polygon points="140,170 180,160 210,190 200,230 160,240 130,210" fill="#7EF7C7" stroke="#0B1020" stroke-width="1.5" opacity="0.4"/><polygon points="210,190 250,180 280,210 270,250 230,260 200,230" fill="#FF7AC8" stroke="#0B1020" stroke-width="1.5" opacity="0.4"/><polygon points="-10,165 30,155 20,195 -20,205 -40,175" fill="#57D7FF" stroke="#0B1020" stroke-width="1.5" opacity="0.4"/><polygon points="30,155 60,190 50,230 10,235 20,195" fill="#FFB84D" stroke="#0B1020" stroke-width="1.5" opacity="0.4"/><polygon points="60,190 100,180 90,220 50,230" fill="#6CA7FF" stroke="#0B1020" stroke-width="1.5" opacity="0.4"/><polygon points="100,180 130,210 120,250 80,260 90,220" fill="#A98BFF" stroke="#0B1020" stroke-width="1.5" opacity="0.4"/><polygon points="130,210 160,240 150,280 110,290 120,250" fill="#7EF7C7" stroke="#0B1020" stroke-width="1.5" opacity="0.4"/><polygon points="160,240 200,230 230,260 220,300 180,310 150,280" fill="#FF7AC8" stroke="#0B1020" stroke-width="1.5" opacity="0.4"/><polygon points="10,235 50,230 40,270 0,275 -10,245" fill="#57D7FF" stroke="#0B1020" stroke-width="1.5" opacity="0.4"/><polygon points="50,230 90,220 80,260 40,270" fill="#FFB84D" stroke="#0B1020" stroke-width="1.5" opacity="0.4"/></g><rect x="1074.0" y="338" width="468.0" height="320" rx="24" fill="url(#panelGlow)" stroke="#26334F" stroke-width="1.5" filter="url(#softShadow)"/><rect x="1098.0" y="362" width="60" height="6" rx="3" fill="#FF6B6B"/><text x="1098.0" y="393.0" fill="#ECF2FF" font-size="22" font-weight="700" font-family="&#x27;IBM Plex Sans&#x27;, sans-serif" text-anchor="start">Inferred Tensions</text><g transform="translate(1114.0,418) scale(0.95)"><polygon points="40,10 80,5 110,30 95,70 50,75 20,45" fill="#0B1020" stroke="#57D7FF" stroke-width="3" opacity="0.9"/><polygon points="110,30 150,20 180,50 160,90 120,100 95,70" fill="#0B1020" stroke="#FFB84D" stroke-width="5" opacity="0.9"/><polygon points="180,50 220,40 250,70 230,110 190,120 160,90" fill="#0B1020" stroke="#FF6B6B" stroke-width="7" opacity="0.9"/><polygon points="250,70 290,60 320,90 300,130 260,140 230,110" fill="#0B1020" stroke="#FF7AC8" stroke-width="9" opacity="0.9"/><polygon points="20,45 50,75 40,115 0,125 -20,95 -10,60" fill="#0B1020" stroke="#57D7FF" stroke-width="3" opacity="0.9"/><polygon points="50,75 95,70 85,110 40,115" fill="#0B1020" stroke="#FFB84D" stroke-width="5" opacity="0.9"/><polygon points="95,70 120,100 110,140 70,150 85,110" fill="#0B1020" stroke="#57D7FF" stroke-width="3" opacity="0.9"/><polygon points="120,100 160,90 190,120 180,160 140,170 110,140" fill="#0B1020" stroke="#FFB84D" stroke-width="5" opacity="0.9"/><polygon points="190,120 230,110 260,140 250,180 210,190 180,160" fill="#0B1020" stroke="#FF6B6B" stroke-width="7" opacity="0.9"/><polygon points="260,140 300,130 330,160 310,200 270,210 250,180" fill="#0B1020" stroke="#FF7AC8" stroke-width="9" opacity="0.9"/><polygon points="0,125 40,115 30,155 -10,165 -30,135" fill="#0B1020" stroke="#57D7FF" stroke-width="3" opacity="0.9"/><polygon points="40,115 85,110 70,150 30,155" fill="#0B1020" stroke="#FFB84D" stroke-width="5" opacity="0.9"/><polygon points="70,150 110,140 100,180 60,190 30,155" fill="#0B1020" stroke="#57D7FF" stroke-width="3" opacity="0.9"/><polygon points="110,140 140,170 130,210 90,220 100,180" fill="#0B1020" stroke="#FFB84D" stroke-width="5" opacity="0.9"/><polygon points="140,170 180,160 210,190 200,230 160,240 130,210" fill="#0B1020" stroke="#FF6B6B" stroke-width="7" opacity="0.9"/><polygon points="210,190 250,180 280,210 270,250 230,260 200,230" fill="#0B1020" stroke="#FF7AC8" stroke-width="9" opacity="0.9"/><polygon points="-10,165 30,155 20,195 -20,205 -40,175" fill="#0B1020" stroke="#57D7FF" stroke-width="3" opacity="0.9"/><polygon points="30,155 60,190 50,230 10,235 20,195" fill="#0B1020" stroke="#FFB84D" stroke-width="5" opacity="0.9"/><polygon points="60,190 100,180 90,220 50,230" fill="#0B1020" stroke="#57D7FF" stroke-width="3" opacity="0.9"/><polygon points="100,180 130,210 120,250 80,260 90,220" fill="#0B1020" stroke="#FFB84D" stroke-width="5" opacity="0.9"/><polygon points="130,210 160,240 150,280 110,290 120,250" fill="#0B1020" stroke="#FF6B6B" stroke-width="7" opacity="0.9"/><polygon points="160,240 200,230 230,260 220,300 180,310 150,280" fill="#0B1020" stroke="#FF7AC8" stroke-width="9" opacity="0.9"/><polygon points="10,235 50,230 40,270 0,275 -10,245" fill="#0B1020" stroke="#57D7FF" stroke-width="3" opacity="0.9"/><polygon points="50,230 90,220 80,260 40,270" fill="#0B1020" stroke="#FFB84D" stroke-width="5" opacity="0.9"/></g><rect x="58" y="698" width="1484" height="400" rx="24" fill="url(#panelGlow)" stroke="#26334F" stroke-width="1.5" filter="url(#softShadow)"/><rect x="82" y="722" width="60" height="6" rx="3" fill="#57D7FF"/><text x="82.0" y="753.0" fill="#ECF2FF" font-size="22" font-weight="700" font-family="&#x27;IBM Plex Sans&#x27;, sans-serif" text-anchor="start">Inference Pipeline</text><text x="88.0" y="808.0" fill="#ECF2FF" font-size="18" font-weight="700" font-family="&#x27;IBM Plex Sans&#x27;, sans-serif" text-anchor="start">1. Segmentation</text><rect x="88" y="828" width="280" height="220" rx="16" fill="#0E1527" stroke="#26334F"/><circle cx="228" cy="938" r="40" fill="#57D7FF" opacity="0.1"/><text x="388.0" y="808.0" fill="#ECF2FF" font-size="18" font-weight="700" font-family="&#x27;IBM Plex Sans&#x27;, sans-serif" text-anchor="start">2. Label Topology</text><rect x="388" y="828" width="280" height="220" rx="16" fill="#0E1527" stroke="#26334F"/><circle cx="528" cy="938" r="40" fill="#57D7FF" opacity="0.1"/><text x="688.0" y="808.0" fill="#ECF2FF" font-size="18" font-weight="700" font-family="&#x27;IBM Plex Sans&#x27;, sans-serif" text-anchor="start">3. Curvature</text><rect x="688" y="828" width="280" height="220" rx="16" fill="#0E1527" stroke="#26334F"/><circle cx="828" cy="938" r="40" fill="#57D7FF" opacity="0.1"/><text x="988.0" y="808.0" fill="#ECF2FF" font-size="18" font-weight="700" font-family="&#x27;IBM Plex Sans&#x27;, sans-serif" text-anchor="start">4. Mechanics</text><rect x="988" y="828" width="280" height="220" rx="16" fill="#0E1527" stroke="#26334F"/><circle cx="1128" cy="938" r="40" fill="#57D7FF" opacity="0.1"/><text x="1288.0" y="808.0" fill="#ECF2FF" font-size="18" font-weight="700" font-family="&#x27;IBM Plex Sans&#x27;, sans-serif" text-anchor="start">5. Stress</text><rect x="1288" y="828" width="280" height="220" rx="16" fill="#0E1527" stroke="#26334F"/><circle cx="1428" cy="938" r="40" fill="#57D7FF" opacity="0.1"/><rect x="58" y="1138" width="722.0" height="600" rx="24" fill="url(#panelGlow)" stroke="#26334F" stroke-width="1.5" filter="url(#softShadow)"/><rect x="82" y="1162" width="60" height="6" rx="3" fill="#FFB84D"/><text x="82.0" y="1193.0" fill="#ECF2FF" font-size="22" font-weight="700" font-family="&#x27;IBM Plex Sans&#x27;, sans-serif" text-anchor="start">Core Features</text><circle cx="95" cy="1242" r="4" fill="#FFB84D"/><text x="113.0" y="1248.0" fill="#ECF2FF" font-size="18" font-weight="450" font-family="&#x27;IBM Plex Sans&#x27;, sans-serif"><tspan x="113.0" dy="0.0" text-anchor="start">Hybrid segmentation: Neural (Cellpose)</tspan><tspan x="113.0" dy="23.8" text-anchor="start">+ Grayscale.</tspan></text><circle cx="95" cy="1302.6" r="4" fill="#FFB84D"/><text x="113.0" y="1308.6" fill="#ECF2FF" font-size="18" font-weight="450" font-family="&#x27;IBM Plex Sans&#x27;, sans-serif"><tspan x="113.0" dy="0.0" text-anchor="start">Label-driven topology: Preserves</tspan><tspan x="113.0" dy="23.8" text-anchor="start">junctions.</tspan></text><circle cx="95" cy="1363.1999999999998" r="4" fill="#FFB84D"/><text x="113.0" y="1369.2" fill="#ECF2FF" font-size="18" font-weight="450" font-family="&#x27;IBM Plex Sans&#x27;, sans-serif"><tspan x="113.0" dy="0.0" text-anchor="start">Multi-modal solvers: Bayesian +</tspan><tspan x="113.0" dy="23.8" text-anchor="start">Young-Laplace.</tspan></text><circle cx="95" cy="1423.7999999999997" r="4" fill="#FFB84D"/><text x="113.0" y="1429.8" fill="#ECF2FF" font-size="18" font-weight="450" font-family="&#x27;IBM Plex Sans&#x27;, sans-serif"><tspan x="113.0" dy="0.0" text-anchor="start">Stress Analysis: Per-cell stress</tspan><tspan x="113.0" dy="23.8" text-anchor="start">tensors.</tspan></text><circle cx="95" cy="1484.3999999999996" r="4" fill="#FFB84D"/><text x="113.0" y="1490.4" fill="#ECF2FF" font-size="18" font-weight="450" font-family="&#x27;IBM Plex Sans&#x27;, sans-serif"><tspan x="113.0" dy="0.0" text-anchor="start">2.5D support for Z-coordinate vertex</tspan><tspan x="113.0" dy="23.8" text-anchor="start">mapping.</tspan></text><rect x="820.0" y="1138" width="722.0" height="600" rx="24" fill="url(#panelGlow)" stroke="#26334F" stroke-width="1.5" filter="url(#softShadow)"/><rect x="844.0" y="1162" width="60" height="6" rx="3" fill="#FF6B6B"/><text x="844.0" y="1193.0" fill="#ECF2FF" font-size="22" font-weight="700" font-family="&#x27;IBM Plex Sans&#x27;, sans-serif" text-anchor="start">Key Equations</text><text x="850.0" y="1248.0" fill="#57D7FF" font-size="18" font-weight="700" font-family="&#x27;IBM Plex Sans&#x27;, sans-serif" text-anchor="start">Force Balance</text><text x="850.0" y="1288.0" fill="#ECF2FF" font-size="20" font-weight="700" font-family="&#x27;IBM Plex Mono&#x27;, monospace" text-anchor="start">Σ T_e·u_e + Σ P_c·n_vc = 0</text><text x="850.0" y="1373.0" fill="#57D7FF" font-size="18" font-weight="700" font-family="&#x27;IBM Plex Sans&#x27;, sans-serif" text-anchor="start">Bayesian Inverse</text><text x="850.0" y="1413.0" fill="#ECF2FF" font-size="20" font-weight="700" font-family="&#x27;IBM Plex Mono&#x27;, monospace" text-anchor="start">x* = argmin ||Ax||² + μ||Bx-g||²</text><text x="850.0" y="1498.0" fill="#57D7FF" font-size="18" font-weight="700" font-family="&#x27;IBM Plex Sans&#x27;, sans-serif" text-anchor="start">Young-Laplace</text><text x="850.0" y="1538.0" fill="#ECF2FF" font-size="20" font-weight="700" font-family="&#x27;IBM Plex Mono&#x27;, monospace" text-anchor="start">ΔP = T · κ</text><text x="850.0" y="1623.0" fill="#57D7FF" font-size="18" font-weight="700" font-family="&#x27;IBM Plex Sans&#x27;, sans-serif" text-anchor="start">Batchelor Stress</text><text x="850.0" y="1663.0" fill="#ECF2FF" font-size="20" font-weight="700" font-family="&#x27;IBM Plex Mono&#x27;, monospace" text-anchor="start">σ = -P·I + (1/A)Σ T·L (u⊗u)</text><rect x="58" y="1778" width="1484" height="400" rx="24" fill="url(#panelGlow)" stroke="#26334F" stroke-width="1.5" filter="url(#softShadow)"/><rect x="82" y="1802" width="60" height="6" rx="3" fill="#A98BFF"/><text x="82.0" y="1833.0" fill="#ECF2FF" font-size="22" font-weight="700" font-family="&#x27;IBM Plex Sans&#x27;, sans-serif" text-anchor="start">Repository Structure</text><text x="98.0" y="1888.0" fill="#ECF2FF" font-size="20" font-weight="400" font-family="&#x27;IBM Plex Mono&#x27;, monospace" text-anchor="start">force_inference/</text><text x="98.0" y="1933.0" fill="#ECF2FF" font-size="20" font-weight="400" font-family="&#x27;IBM Plex Mono&#x27;, monospace" text-anchor="start">  segmentation.py</text><text x="98.0" y="1978.0" fill="#ECF2FF" font-size="20" font-weight="400" font-family="&#x27;IBM Plex Mono&#x27;, monospace" text-anchor="start">  topology_label.py</text><text x="98.0" y="2023.0" fill="#ECF2FF" font-size="20" font-weight="400" font-family="&#x27;IBM Plex Mono&#x27;, monospace" text-anchor="start">  solvers.py</text><text x="98.0" y="2068.0" fill="#ECF2FF" font-size="20" font-weight="400" font-family="&#x27;IBM Plex Mono&#x27;, monospace" text-anchor="start">examples/</text><text x="98.0" y="2113.0" fill="#ECF2FF" font-size="20" font-weight="400" font-family="&#x27;IBM Plex Mono&#x27;, monospace" text-anchor="start">tests/</text><rect x="58" y="2260" width="1484" height="80" rx="20" fill="#0D152A"/><text x="88.0" y="2308.0" fill="#ECF2FF" font-size="22" font-weight="700" font-family="&#x27;IBM Plex Sans&#x27;, sans-serif" text-anchor="start">Visual Case Study: 1024x1024 input processed in &lt; 2.0s</text><text x="1512.0" y="2308.0" fill="#57D7FF" font-size="22" font-weight="400" font-family="&#x27;IBM Plex Sans&#x27;, sans-serif" text-anchor="end">github.com/weiyuankong/ForceInferencePy</text></svg>